<mxfile host="Electron" agent="Mozilla/5.0 (Windows NT 10.0; Win64; x64) AppleWebKit/537.36 (KHTML, like Gecko) draw.io/25.0.2 Chrome/128.0.6613.186 Electron/32.2.5 Safari/537.36" version="25.0.2">
  <diagram name="第 1 页" id="-WqR5mdXhXt3wMQ83Vlv">
    <mxGraphModel dx="1863" dy="609" grid="1" gridSize="10" guides="1" tooltips="1" connect="1" arrows="1" fold="1" page="1" pageScale="1" pageWidth="827" pageHeight="1169" math="0" shadow="0">
      <root>
        <mxCell id="0" />
        <mxCell id="1" parent="0" />
        <mxCell id="jeCvMuqjyL03XiaNAi_c-3" value="&lt;div style=&quot;&quot;&gt;&lt;pre style=&quot;&quot;&gt;&lt;div style=&quot;font-family: &amp;quot;JetBrainsMono Nerd Font&amp;quot;, Consolas, &amp;quot;Courier New&amp;quot;, monospace; line-height: 23px;&quot;&gt;&lt;div style=&quot;&quot;&gt;&lt;font style=&quot;font-size: 14px;&quot;&gt;&lt;span style=&quot;color: rgb(0, 0, 255); background-color: rgb(255, 255, 255);&quot;&gt; &lt;/span&gt;&lt;span style=&quot;background-color: rgb(255, 255, 255);&quot;&gt;&lt;font color=&quot;#ababab&quot;&gt;1&lt;/font&gt;&lt;/span&gt;&lt;span style=&quot;color: rgb(0, 0, 255); background-color: rgb(255, 255, 255);&quot;&gt; long&lt;/span&gt;&lt;span style=&quot;color: rgb(0, 0, 0); background-color: rgb(255, 255, 255);&quot;&gt; &lt;/span&gt;&lt;span style=&quot;color: rgb(121, 94, 38); background-color: rgb(253, 228, 202);&quot;&gt;FUN_00125a60&lt;/span&gt;&lt;span style=&quot;color: rgb(0, 0, 0); background-color: rgb(255, 255, 255);&quot;&gt;(&lt;/span&gt;&lt;span style=&quot;color: rgb(0, 0, 255); background-color: rgb(255, 255, 255);&quot;&gt;long&lt;/span&gt;&lt;span style=&quot;color: rgb(0, 0, 0); background-color: rgb(255, 255, 255);&quot;&gt; &lt;/span&gt;&lt;span style=&quot;color: rgb(0, 16, 128); background-color: rgb(255, 255, 255);&quot;&gt;p1&lt;/span&gt;&lt;span style=&quot;color: rgb(0, 0, 0); background-color: rgb(255, 255, 255);&quot;&gt;,code *&lt;/span&gt;&lt;span style=&quot;color: rgb(0, 16, 128); background-color: rgb(210, 229, 210);&quot;&gt;p2&lt;/span&gt;&lt;span style=&quot;background-color: rgb(255, 255, 255);&quot;&gt;,&lt;font color=&quot;#1800ff&quot;&gt;void&lt;/font&gt; *&lt;/span&gt;&lt;span style=&quot;color: rgb(0, 16, 128); background-color: rgb(255, 255, 255);&quot;&gt;p3&lt;/span&gt;&lt;span style=&quot;color: rgb(0, 0, 0); background-color: rgb(255, 255, 255);&quot;&gt;) &lt;/span&gt;&lt;/font&gt;&lt;span style=&quot;color: rgb(0, 0, 0); font-size: 14px; background-color: rgb(255, 255, 255); white-space: normal;&quot;&gt;{&lt;/span&gt;&lt;/div&gt;&lt;div style=&quot;background-color: rgb(255, 255, 255);&quot;&gt;&lt;font style=&quot;font-size: 14px;&quot;&gt; &lt;font color=&quot;#ababab&quot;&gt;2&lt;/font&gt; &amp;nbsp; lVar3 = *(&lt;span style=&quot;color: rgb(0, 0, 255);&quot;&gt;long&lt;/span&gt; *)(p1 + &lt;span style=&quot;color: rgb(9, 134, 88);&quot;&gt;0x38&lt;/span&gt;);&lt;/font&gt;&lt;/div&gt;&lt;div style=&quot;&quot;&gt;&lt;font style=&quot;font-size: 14px;&quot;&gt;&lt;span style=&quot;background-color: rgb(255, 255, 255);&quot;&gt; &lt;font color=&quot;#ababab&quot;&gt;3&lt;/font&gt; &amp;nbsp; &lt;/span&gt;&lt;span style=&quot;color: rgb(175, 0, 219); background-color: rgb(255, 255, 255);&quot;&gt;if&lt;/span&gt;&lt;span style=&quot;color: rgb(0, 0, 0); background-color: rgb(255, 255, 255);&quot;&gt; ((&lt;/span&gt;&lt;span style=&quot;color: rgb(0, 0, 0); background-color: rgb(213, 232, 212);&quot;&gt;p2&lt;/span&gt;&lt;span style=&quot;color: rgb(0, 0, 0); background-color: rgb(255, 255, 255);&quot;&gt; != (code *)&lt;/span&gt;&lt;span style=&quot;color: rgb(9, 134, 88); background-color: rgb(255, 255, 255);&quot;&gt;0x0&lt;/span&gt;&lt;span style=&quot;color: rgb(0, 0, 0); background-color: rgb(255, 255, 255);&quot;&gt;) &amp;amp;&amp;amp; (lVar3 != &lt;/span&gt;&lt;span style=&quot;color: rgb(9, 134, 88); background-color: rgb(255, 255, 255);&quot;&gt;0&lt;/span&gt;&lt;span style=&quot;color: rgb(0, 0, 0); background-color: rgb(255, 255, 255);&quot;&gt;)) {&lt;/span&gt;&lt;/font&gt;&lt;/div&gt;&lt;div style=&quot;&quot;&gt;&lt;font style=&quot;font-size: 14px;&quot;&gt;&lt;span style=&quot;background-color: rgb(255, 255, 255);&quot;&gt; &lt;font color=&quot;#ababab&quot;&gt;4&lt;/font&gt; &amp;nbsp; &amp;nbsp; lVar3 = &lt;/span&gt;&lt;span style=&quot;color: rgb(0, 0, 0); background-color: rgb(213, 232, 212);&quot;&gt;(*p2)(p3)&lt;/span&gt;&lt;span style=&quot;color: rgb(0, 0, 0); background-color: rgb(255, 255, 255);&quot;&gt;;&lt;/span&gt;&lt;/font&gt;&lt;/div&gt;&lt;div style=&quot;background-color: rgb(255, 255, 255);&quot;&gt;&lt;font style=&quot;font-size: 14px;&quot;&gt; &lt;font color=&quot;#ababab&quot;&gt;5&lt;/font&gt; &amp;nbsp; }&lt;/font&gt;&lt;/div&gt;&lt;div style=&quot;background-color: rgb(255, 255, 255);&quot;&gt;&lt;font style=&quot;font-size: 14px;&quot;&gt; &lt;font color=&quot;#ababab&quot;&gt;6&lt;/font&gt; &amp;nbsp; *(&lt;span style=&quot;color: rgb(0, 0, 255);&quot;&gt;long&lt;/span&gt; *)(lVar1 + &lt;span style=&quot;color: rgb(9, 134, 88);&quot;&gt;0x38&lt;/span&gt;) = lVar3;&lt;/font&gt;&lt;/div&gt;&lt;div style=&quot;background-color: rgb(255, 255, 255);&quot;&gt;&lt;font style=&quot;font-size: 14px;&quot;&gt; &lt;font color=&quot;#ababab&quot;&gt;7&lt;/font&gt; &amp;nbsp; &lt;span style=&quot;color: rgb(0, 128, 0);&quot;&gt;// other operations&lt;/span&gt;&lt;/font&gt;&lt;/div&gt;&lt;div style=&quot;background-color: rgb(255, 255, 255);&quot;&gt;&lt;font style=&quot;font-size: 14px;&quot;&gt; &lt;font color=&quot;#ababab&quot;&gt;8&lt;/font&gt; }&lt;/font&gt;&lt;/div&gt;&lt;/div&gt;&lt;/pre&gt;&lt;/div&gt;" style="text;whiteSpace=wrap;html=1;" parent="1" vertex="1">
          <mxGeometry x="-65" y="310" width="420" height="240" as="geometry" />
        </mxCell>
        <mxCell id="FuwG5ZofGTA1zSVKPw92-1" value="&lt;div style=&quot;font-family: &amp;quot;JetBrainsMono Nerd Font&amp;quot;, Consolas, &amp;quot;Courier New&amp;quot;, monospace; font-weight: normal; line-height: 23px; white-space: pre;&quot;&gt;&lt;div style=&quot;&quot;&gt;&lt;font style=&quot;font-size: 14px;&quot;&gt;&lt;span style=&quot;color: rgb(0, 0, 255); background-color: rgb(255, 255, 255);&quot;&gt; &lt;/span&gt;&lt;span style=&quot;background-color: rgb(255, 255, 255);&quot;&gt;&lt;font color=&quot;#ababab&quot;&gt;1&lt;/font&gt;&lt;/span&gt;&lt;span style=&quot;color: rgb(0, 0, 255); background-color: rgb(255, 255, 255);&quot;&gt;  static&lt;/span&gt;&lt;span style=&quot;color: rgb(0, 0, 0); background-color: rgb(255, 255, 255);&quot;&gt; node234 *&lt;/span&gt;&lt;span style=&quot;color: rgb(121, 94, 38); background-color: rgb(254, 229, 203);&quot;&gt;copynode234&lt;/span&gt;&lt;span style=&quot;color: rgb(0, 0, 0); background-color: rgb(255, 255, 255);&quot;&gt;(node234 *&lt;/span&gt;&lt;span style=&quot;color: rgb(0, 16, 128); background-color: rgb(255, 255, 255);&quot;&gt;n&lt;/span&gt;&lt;span style=&quot;color: rgb(0, 0, 0); background-color: rgb(255, 255, 255);&quot;&gt;, copyfn234 &lt;/span&gt;&lt;span style=&quot;color: rgb(0, 16, 128); background-color: rgb(212, 231, 211);&quot;&gt;copyfn&lt;/span&gt;&lt;span style=&quot;color: rgb(0, 0, 0); background-color: rgb(255, 255, 255);&quot;&gt;, &lt;/span&gt;&lt;span style=&quot;color: rgb(0, 0, 255); background-color: rgb(255, 255, 255);&quot;&gt;void&lt;/span&gt;&lt;span style=&quot;color: rgb(0, 0, 0); background-color: rgb(255, 255, 255);&quot;&gt; *&lt;/span&gt;&lt;span style=&quot;color: rgb(0, 16, 128); background-color: rgb(255, 255, 255);&quot;&gt;copyfnstate&lt;/span&gt;&lt;span style=&quot;color: rgb(0, 0, 0); background-color: rgb(255, 255, 255);&quot;&gt;) {&lt;/span&gt;&lt;/font&gt;&lt;/div&gt;&lt;div style=&quot;background-color: rgb(255, 255, 255);&quot;&gt;&lt;font style=&quot;font-size: 14px;&quot;&gt;&lt;span style=&quot;color: rgb(0, 0, 0);&quot;&gt;&amp;nbsp;&lt;/span&gt;&lt;font color=&quot;#ababab&quot;&gt;2&lt;/font&gt;&lt;span style=&quot;color: rgb(0, 0, 0);&quot;&gt;  &amp;nbsp; &lt;/span&gt;&lt;span style=&quot;color: rgb(175, 0, 219);&quot;&gt;for&lt;/span&gt;&lt;span style=&quot;color: rgb(0, 0, 0);&quot;&gt; (i = &lt;/span&gt;&lt;span style=&quot;color: rgb(9, 134, 88);&quot;&gt;0&lt;/span&gt;&lt;span style=&quot;color: rgb(0, 0, 0);&quot;&gt;; i &amp;lt; &lt;/span&gt;&lt;span style=&quot;color: rgb(9, 134, 88);&quot;&gt;3&lt;/span&gt;&lt;span style=&quot;color: rgb(0, 0, 0);&quot;&gt;; i++) {&lt;/span&gt;&lt;/font&gt;&lt;/div&gt;&lt;div style=&quot;&quot;&gt;&lt;font style=&quot;font-size: 14px;&quot;&gt;&lt;span style=&quot;color: rgb(0, 0, 0); background-color: rgb(255, 255, 255);&quot;&gt;&amp;nbsp;&lt;/span&gt;&lt;span style=&quot;background-color: rgb(255, 255, 255);&quot;&gt;&lt;font color=&quot;#ababab&quot;&gt;3&lt;/font&gt;&lt;/span&gt;&lt;span style=&quot;color: rgb(0, 0, 0); background-color: rgb(255, 255, 255);&quot;&gt;  &amp;nbsp; &amp;nbsp; &lt;/span&gt;&lt;span style=&quot;color: rgb(175, 0, 219); background-color: rgb(255, 255, 255);&quot;&gt;if&lt;/span&gt;&lt;span style=&quot;color: rgb(0, 0, 0); background-color: rgb(255, 255, 255);&quot;&gt; (&lt;/span&gt;&lt;span style=&quot;color: rgb(0, 16, 128); background-color: rgb(255, 255, 255);&quot;&gt;n&lt;/span&gt;&lt;span style=&quot;color: rgb(0, 0, 0); background-color: rgb(255, 255, 255);&quot;&gt;-&amp;gt;&lt;/span&gt;&lt;span style=&quot;color: rgb(0, 16, 128); background-color: rgb(255, 255, 255);&quot;&gt;elems&lt;/span&gt;&lt;span style=&quot;color: rgb(0, 0, 0); background-color: rgb(255, 255, 255);&quot;&gt;[i] &amp;amp;&amp;amp; copyfn) &lt;/span&gt;&lt;span style=&quot;color: rgb(0, 16, 128); background-color: rgb(255, 255, 255);&quot;&gt;n2&lt;/span&gt;&lt;span style=&quot;color: rgb(0, 0, 0); background-color: rgb(255, 255, 255);&quot;&gt;-&amp;gt;&lt;/span&gt;&lt;span style=&quot;color: rgb(0, 16, 128); background-color: rgb(255, 255, 255);&quot;&gt;elems&lt;/span&gt;&lt;span style=&quot;color: rgb(0, 0, 0); background-color: rgb(255, 255, 255);&quot;&gt;[i] = &lt;/span&gt;&lt;span style=&quot;color: rgb(0, 0, 0); background-color: rgb(213, 232, 212);&quot;&gt;&lt;span style=&quot;color: rgb(121, 94, 38);&quot;&gt;copyfn&lt;/span&gt;&lt;span style=&quot;color: rgb(0, 0, 0);&quot;&gt;(copyfnstate, &lt;/span&gt;&lt;span style=&quot;color: rgb(0, 16, 128);&quot;&gt;n&lt;/span&gt;&lt;span style=&quot;color: rgb(0, 0, 0);&quot;&gt;-&amp;gt;&lt;/span&gt;&lt;span style=&quot;color: rgb(0, 16, 128);&quot;&gt;elems&lt;/span&gt;&lt;/span&gt;&lt;span style=&quot;color: rgb(0, 0, 0);&quot;&gt;&lt;span style=&quot;background-color: rgb(213, 232, 212);&quot;&gt;[i])&lt;/span&gt;&lt;span style=&quot;background-color: rgb(255, 255, 255);&quot;&gt;;&lt;/span&gt;&lt;/span&gt;&lt;/font&gt;&lt;/div&gt;&lt;div style=&quot;background-color: rgb(255, 255, 255);&quot;&gt;&lt;font style=&quot;font-size: 14px;&quot;&gt;&amp;nbsp;&lt;font color=&quot;#ababab&quot;&gt;4&lt;/font&gt;  &amp;nbsp; }&lt;/font&gt;&lt;/div&gt;&lt;div style=&quot;background-color: rgb(255, 255, 255);&quot;&gt;&lt;font style=&quot;font-size: 14px;&quot;&gt;&lt;span style=&quot;color: rgb(0, 0, 0);&quot;&gt;&amp;nbsp;&lt;/span&gt;&lt;font color=&quot;#ababab&quot;&gt;5&lt;/font&gt;&lt;span style=&quot;color: rgb(0, 0, 0);&quot;&gt;  &amp;nbsp; &lt;/span&gt;&lt;span style=&quot;color: rgb(175, 0, 219);&quot;&gt;for&lt;/span&gt;&lt;span style=&quot;color: rgb(0, 0, 0);&quot;&gt; (i = &lt;/span&gt;&lt;span style=&quot;color: rgb(9, 134, 88);&quot;&gt;0&lt;/span&gt;&lt;span style=&quot;color: rgb(0, 0, 0);&quot;&gt;; i &amp;lt; &lt;/span&gt;&lt;span style=&quot;color: rgb(9, 134, 88);&quot;&gt;4&lt;/span&gt;&lt;span style=&quot;color: rgb(0, 0, 0);&quot;&gt;; i++) {&lt;/span&gt;&lt;/font&gt;&lt;/div&gt;&lt;div style=&quot;background-color: rgb(255, 255, 255);&quot;&gt;&lt;font style=&quot;font-size: 14px;&quot;&gt;&lt;span style=&quot;color: rgb(0, 0, 0);&quot;&gt;&amp;nbsp;&lt;/span&gt;&lt;font color=&quot;#ababab&quot;&gt;6&lt;/font&gt;&lt;span style=&quot;color: rgb(0, 0, 0);&quot;&gt;  &amp;nbsp; &amp;nbsp; &amp;nbsp; &lt;/span&gt;&lt;span style=&quot;color: rgb(175, 0, 219);&quot;&gt;if&lt;/span&gt;&lt;span style=&quot;color: rgb(0, 0, 0);&quot;&gt; (&lt;/span&gt;&lt;span style=&quot;color: rgb(0, 16, 128);&quot;&gt;n&lt;/span&gt;&lt;span style=&quot;color: rgb(0, 0, 0);&quot;&gt;-&amp;gt;&lt;/span&gt;&lt;span style=&quot;color: rgb(0, 16, 128);&quot;&gt;kids&lt;/span&gt;&lt;span style=&quot;color: rgb(0, 0, 0);&quot;&gt;[i]) {&lt;/span&gt;&lt;/font&gt;&lt;/div&gt;&lt;div style=&quot;background-color: rgb(255, 255, 255);&quot;&gt;&lt;font style=&quot;font-size: 14px;&quot;&gt;&lt;span style=&quot;color: rgb(0, 0, 0);&quot;&gt;&amp;nbsp;&lt;/span&gt;&lt;font color=&quot;#ababab&quot;&gt;7&lt;/font&gt;&lt;span style=&quot;color: rgb(0, 0, 0);&quot;&gt;  &amp;nbsp; &amp;nbsp; &amp;nbsp; &amp;nbsp; &lt;/span&gt;&lt;span style=&quot;color: rgb(0, 16, 128);&quot;&gt;n2&lt;/span&gt;&lt;span style=&quot;color: rgb(0, 0, 0);&quot;&gt;-&amp;gt;&lt;/span&gt;&lt;span style=&quot;color: rgb(0, 16, 128);&quot;&gt;kids&lt;/span&gt;&lt;span style=&quot;color: rgb(0, 0, 0);&quot;&gt;[i] = &lt;/span&gt;&lt;span style=&quot;color: rgb(121, 94, 38);&quot;&gt;copynode234&lt;/span&gt;&lt;span style=&quot;color: rgb(0, 0, 0);&quot;&gt;(&lt;/span&gt;&lt;span style=&quot;color: rgb(0, 16, 128);&quot;&gt;n&lt;/span&gt;&lt;span style=&quot;color: rgb(0, 0, 0);&quot;&gt;-&amp;gt;&lt;/span&gt;&lt;span style=&quot;color: rgb(0, 16, 128);&quot;&gt;kids&lt;/span&gt;&lt;span style=&quot;color: rgb(0, 0, 0);&quot;&gt;[i], copyfn, copyfnstate);&lt;/span&gt;&lt;/font&gt;&lt;/div&gt;&lt;div style=&quot;background-color: rgb(255, 255, 255);&quot;&gt;&lt;font style=&quot;font-size: 14px;&quot;&gt;&lt;span style=&quot;color: rgb(0, 0, 0);&quot;&gt;&amp;nbsp;&lt;/span&gt;&lt;font color=&quot;#ababab&quot;&gt;8&lt;/font&gt;&lt;span style=&quot;color: rgb(0, 0, 0);&quot;&gt;  &amp;nbsp; &amp;nbsp; &amp;nbsp; &amp;nbsp; &lt;/span&gt;&lt;span style=&quot;color: rgb(0, 16, 128);&quot;&gt;n2&lt;/span&gt;&lt;span style=&quot;color: rgb(0, 0, 0);&quot;&gt;-&amp;gt;&lt;/span&gt;&lt;span style=&quot;color: rgb(0, 16, 128);&quot;&gt;kids&lt;/span&gt;&lt;span style=&quot;color: rgb(0, 0, 0);&quot;&gt;[i]-&amp;gt;&lt;/span&gt;&lt;span style=&quot;color: rgb(0, 16, 128);&quot;&gt;parent&lt;/span&gt;&lt;span style=&quot;color: rgb(0, 0, 0);&quot;&gt; = n2;&lt;/span&gt;&lt;/font&gt;&lt;/div&gt;&lt;div style=&quot;background-color: rgb(255, 255, 255);&quot;&gt;&lt;font style=&quot;font-size: 14px;&quot;&gt;&lt;span style=&quot;color: rgb(0, 0, 0);&quot;&gt;&amp;nbsp;&lt;/span&gt;&lt;font color=&quot;#ababab&quot;&gt;9&lt;/font&gt;&lt;span style=&quot;color: rgb(0, 0, 0);&quot;&gt;  &amp;nbsp; &amp;nbsp; &amp;nbsp; } &lt;/span&gt;&lt;span style=&quot;color: rgb(175, 0, 219);&quot;&gt;else&lt;/span&gt;&lt;span style=&quot;color: rgb(0, 0, 0);&quot;&gt; &lt;/span&gt;&lt;span style=&quot;color: rgb(0, 16, 128);&quot;&gt;n2&lt;/span&gt;&lt;span style=&quot;color: rgb(0, 0, 0);&quot;&gt;-&amp;gt;&lt;/span&gt;&lt;span style=&quot;color: rgb(0, 16, 128);&quot;&gt;kids&lt;/span&gt;&lt;span style=&quot;color: rgb(0, 0, 0);&quot;&gt;[i] = &lt;/span&gt;&lt;span style=&quot;color: rgb(0, 0, 255);&quot;&gt;NULL&lt;/span&gt;&lt;span style=&quot;color: rgb(0, 0, 0);&quot;&gt;;&lt;/span&gt;&lt;/font&gt;&lt;/div&gt;&lt;div style=&quot;background-color: rgb(255, 255, 255);&quot;&gt;&lt;font style=&quot;font-size: 14px;&quot;&gt;&lt;font color=&quot;#ababab&quot;&gt;10&lt;/font&gt;&lt;span style=&quot;color: rgb(0, 0, 0);&quot;&gt;  &amp;nbsp; &amp;nbsp; &amp;nbsp; &lt;/span&gt;&lt;span style=&quot;color: rgb(0, 16, 128);&quot;&gt;n2&lt;/span&gt;&lt;span style=&quot;color: rgb(0, 0, 0);&quot;&gt;-&amp;gt;&lt;/span&gt;&lt;span style=&quot;color: rgb(0, 16, 128);&quot;&gt;counts&lt;/span&gt;&lt;span style=&quot;color: rgb(0, 0, 0);&quot;&gt;[i] = &lt;/span&gt;&lt;span style=&quot;color: rgb(0, 16, 128);&quot;&gt;n&lt;/span&gt;&lt;span style=&quot;color: rgb(0, 0, 0);&quot;&gt;-&amp;gt;&lt;/span&gt;&lt;span style=&quot;color: rgb(0, 16, 128);&quot;&gt;counts&lt;/span&gt;&lt;span style=&quot;color: rgb(0, 0, 0);&quot;&gt;[i];&lt;/span&gt;&lt;/font&gt;&lt;/div&gt;&lt;div style=&quot;background-color: rgb(255, 255, 255);&quot;&gt;&lt;font style=&quot;font-size: 14px;&quot;&gt;&lt;font color=&quot;#ababab&quot;&gt;11&lt;/font&gt;&amp;nbsp; &amp;nbsp; }&lt;/font&gt;&lt;/div&gt;&lt;div style=&quot;background-color: rgb(255, 255, 255);&quot;&gt;&lt;font style=&quot;font-size: 14px;&quot;&gt;&lt;font color=&quot;#ababab&quot;&gt;12&lt;/font&gt;&lt;span style=&quot;color: rgb(0, 0, 0);&quot;&gt;&amp;nbsp;&amp;nbsp;  &lt;/span&gt;&lt;span style=&quot;color: rgb(175, 0, 219);&quot;&gt;return&lt;/span&gt;&lt;span style=&quot;color: rgb(0, 0, 0);&quot;&gt; n2;&lt;/span&gt;&lt;/font&gt;&lt;/div&gt;&lt;div style=&quot;background-color: rgb(255, 255, 255);&quot;&gt;&lt;font style=&quot;font-size: 14px;&quot;&gt;&lt;font color=&quot;#ababab&quot;&gt;13&lt;/font&gt; }&lt;/font&gt;&lt;/div&gt;&lt;/div&gt;" style="text;whiteSpace=wrap;html=1;" parent="1" vertex="1">
          <mxGeometry x="-60" y="10" width="760" height="320" as="geometry" />
        </mxCell>
        <mxCell id="FuwG5ZofGTA1zSVKPw92-3" value="&lt;div style=&quot;color: rgb(0, 0, 0); font-family: &amp;quot;JetBrainsMono Nerd Font&amp;quot;, Consolas, &amp;quot;Courier New&amp;quot;, monospace; font-weight: normal; line-height: 23px; white-space: pre;&quot;&gt;&lt;div style=&quot;&quot;&gt;&lt;div style=&quot;line-height: 23px;&quot;&gt;&lt;div style=&quot;&quot;&gt;&lt;font style=&quot;font-size: 14px;&quot;&gt;&lt;span style=&quot;background-color: rgb(255, 255, 255); color: rgb(0, 0, 255);&quot;&gt;void&lt;/span&gt;&lt;span style=&quot;background-color: rgb(255, 255, 255);&quot;&gt;* &lt;/span&gt;&lt;span style=&quot;color: rgb(121, 94, 38); background-color: rgb(255, 230, 204);&quot;&gt;FUN_001461a4&lt;/span&gt;&lt;span style=&quot;background-color: rgb(255, 255, 255);&quot;&gt;(&lt;/span&gt;&lt;span style=&quot;background-color: rgb(255, 255, 255); color: rgb(0, 0, 255);&quot;&gt;void&lt;/span&gt;&lt;span style=&quot;background-color: rgb(255, 255, 255);&quot;&gt; *&lt;/span&gt;&lt;span style=&quot;background-color: rgb(255, 255, 255); color: rgb(0, 16, 128);&quot;&gt;p1&lt;/span&gt;&lt;span style=&quot;background-color: rgb(255, 255, 255);&quot;&gt;, &lt;/span&gt;&lt;span style=&quot;background-color: rgb(255, 255, 255); color: rgb(0, 0, 255);&quot;&gt;void&lt;/span&gt;&lt;span style=&quot;background-color: rgb(255, 255, 255);&quot;&gt; *&lt;/span&gt;&lt;span style=&quot;background-color: rgb(255, 255, 255); color: rgb(0, 16, 128);&quot;&gt;p2&lt;/span&gt;&lt;span style=&quot;background-color: rgb(255, 255, 255);&quot;&gt;) {&lt;/span&gt;&lt;/font&gt;&lt;/div&gt;&lt;div style=&quot;background-color: rgb(255, 255, 255);&quot;&gt;&lt;font style=&quot;font-size: 14px;&quot;&gt;&amp;nbsp; &lt;span style=&quot;color: #008000;&quot;&gt;// some operations&lt;/span&gt;&lt;/font&gt;&lt;/div&gt;&lt;div style=&quot;background-color: rgb(255, 255, 255);&quot;&gt;&lt;font style=&quot;font-size: 14px;&quot;&gt;&amp;nbsp; &lt;span style=&quot;color: #008000;&quot;&gt;// lVar1 = len(p2)&lt;/span&gt;&lt;/font&gt;&lt;/div&gt;&lt;div style=&quot;&quot;&gt;&lt;font style=&quot;font-size: 14px;&quot;&gt;&lt;span style=&quot;background-color: rgb(255, 255, 255);&quot;&gt;&amp;nbsp; &lt;/span&gt;&lt;span style=&quot;background-color: rgb(255, 255, 136);&quot;&gt;lVar2 = (&lt;span style=&quot;color: rgb(0, 0, 255);&quot;&gt;void&lt;/span&gt;*)&lt;span style=&quot;color: rgb(121, 94, 38);&quot;&gt;malloc&lt;/span&gt;(lVar1 + &lt;span style=&quot;color: rgb(9, 134, 88);&quot;&gt;1&lt;/span&gt;)&lt;/span&gt;&lt;span style=&quot;background-color: rgb(255, 255, 255);&quot;&gt;;&lt;/span&gt;&lt;/font&gt;&lt;/div&gt;&lt;div style=&quot;&quot;&gt;&lt;font style=&quot;font-size: 14px;&quot;&gt;&lt;span style=&quot;background-color: rgb(255, 255, 255);&quot;&gt;&amp;nbsp; &lt;/span&gt;&lt;span style=&quot;background-color: rgb(255, 255, 136);&quot;&gt;&lt;span style=&quot;color: rgb(121, 94, 38);&quot;&gt;memcpy&lt;/span&gt;(lVar2, p2, lVar1)&lt;/span&gt;&lt;span style=&quot;background-color: rgb(255, 255, 255);&quot;&gt;;&lt;/span&gt;&lt;/font&gt;&lt;/div&gt;&lt;div style=&quot;background-color: rgb(255, 255, 255);&quot;&gt;&lt;font style=&quot;font-size: 14px;&quot;&gt;&amp;nbsp; &lt;span style=&quot;color: #008000;&quot;&gt;// other operations&lt;/span&gt;&lt;/font&gt;&lt;/div&gt;&lt;div style=&quot;background-color: rgb(255, 255, 255);&quot;&gt;&lt;font style=&quot;font-size: 14px;&quot;&gt;&amp;nbsp; &lt;span style=&quot;color: #af00db;&quot;&gt;return&lt;/span&gt; lVar2;&lt;/font&gt;&lt;/div&gt;&lt;div style=&quot;background-color: rgb(255, 255, 255);&quot;&gt;&lt;font style=&quot;font-size: 14px;&quot;&gt;}&lt;/font&gt;&lt;/div&gt;&lt;/div&gt;&lt;/div&gt;&lt;/div&gt;" style="text;whiteSpace=wrap;html=1;fillColor=none;strokeColor=#82b366;strokeWidth=2;rounded=1;arcSize=6;" parent="1" vertex="1">
          <mxGeometry x="355" y="300" width="340" height="205" as="geometry" />
        </mxCell>
        <mxCell id="FuwG5ZofGTA1zSVKPw92-9" value="" style="rounded=1;whiteSpace=wrap;html=1;fillColor=none;strokeColor=#82b366;strokeWidth=2;" parent="1" vertex="1">
          <mxGeometry x="60" y="400" width="86" height="20" as="geometry" />
        </mxCell>
        <mxCell id="FuwG5ZofGTA1zSVKPw92-10" value="" style="endArrow=none;html=1;rounded=0;entryX=0.048;entryY=1.005;entryDx=0;entryDy=0;strokeWidth=2;fillColor=#d5e8d4;strokeColor=#82b366;entryPerimeter=0;" parent="1" target="FuwG5ZofGTA1zSVKPw92-3" edge="1">
          <mxGeometry width="50" height="50" relative="1" as="geometry">
            <mxPoint x="100" y="420" as="sourcePoint" />
            <mxPoint x="150" y="370" as="targetPoint" />
          </mxGeometry>
        </mxCell>
        <mxCell id="FuwG5ZofGTA1zSVKPw92-11" value="" style="endArrow=none;html=1;rounded=0;fillColor=#d5e8d4;strokeColor=#82b366;strokeWidth=2;" parent="1" edge="1">
          <mxGeometry width="50" height="50" relative="1" as="geometry">
            <mxPoint x="100" y="400" as="sourcePoint" />
            <mxPoint x="370" y="300" as="targetPoint" />
          </mxGeometry>
        </mxCell>
      </root>
    </mxGraphModel>
  </diagram>
</mxfile>
